/* XPM */
static char *dummy[]={
"32 32 223 2",
".d c #000000",
".g c #000000",
"Qt c #141414",
".k c #000000",
".c c #2b2b2b",
".# c #636363",
".b c #656565",
".h c #666666",
".a c #666666",
"bC c #4f4f4f",
".f c #969696",
"bB c #989898",
".j c #999999",
"aK c #090909",
".Q c #0b0b0b",
".z c #0d0d0d",
".P c #0d0d0e",
".0 c #0d0e0d",
".Z c #0d0e0e",
".Y c #0e0d0d",
".W c #0e0d0e",
".X c #0e0e0d",
".v c #0e0e0e",
".5 c #0e0f0e",
".S c #0f0e0e",
"a8 c #0f0f0e",
"#j c #0f0f0f",
"bt c #0f100f",
"ai c #100f0f",
".G c #101010",
"bg c #101110",
"at c #111111",
".B c #111212",
".A c #121212",
"#A c #131312",
".w c #131313",
"#z c #141414",
".O c #151515",
".1 c #151615",
"b. c #161616",
"aT c #171717",
"br c #171718",
"bs c #171817",
"#M c #181818",
"ay c #181918",
".V c #191919",
"b# c #191a19",
"af c #1a1a1a",
"aB c #1a1b1a",
".6 c #1b1b1b",
".F c #1c1c1c",
"bd c #1c1d1c",
".L c #1d1d1d",
".7 c #1d1e1d",
"aM c #1d1e1e",
"a# c #1e1716",
".C c #1e1e1e",
"aN c #1e1f1e",
".M c #1f1f1f",
".N c #1f1f20",
"av c #1f201f",
".T c #202020",
".E c #212121",
".K c #222121",
"au c #222222",
"#4 c #222322",
".J c #232323",
".D c #242424",
"aL c #252525",
"aj c #252624",
"#1 c #272727",
"bl c #282828",
"#k c #292928",
".U c #292929",
"bi c #292a29",
"bk c #292a2a",
"bh c #2a292a",
"bj c #2a2a29",
"am c #2a2a2a",
"a9 c #2b2b2b",
"aV c #2b2c2b",
"ae c #2c2c2c",
"aa c #2e2727",
"aO c #2e2e2e",
"aQ c #2e2f2d",
"a2 c #2f302f",
"ag c #303230",
"aq c #313230",
"aU c #313231",
"aF c #313331",
"aY c #323331",
"#Q c #323332",
"aZ c #323432",
"a0 c #333432",
"a3 c #333433",
"a4 c #343634",
"a5 c #353734",
"#B c #353735",
"a6 c #363735",
"bx c #3a3c3a",
"aH c #3b3b3b",
"by c #3b3c3a",
"an c #3c3c3c",
"bz c #3c3d3c",
"aA c #3d3e3c",
"#5 c #3d3e3d",
"a7 c #3d3f3c",
"ab c #3e3737",
"ap c #3e3e3e",
"ad c #3f3a3a",
"aI c #404040",
"bw c #404240",
"ax c #424341",
"aS c #434341",
"al c #434441",
"a. c #443e3c",
"#N c #464745",
"ac c #484141",
"ao c #4a4a4a",
"a1 c #4b4d4a",
"as c #4f514e",
"#v c #500707",
"#I c #511818",
"#w c #525351",
"#G c #551111",
"#0 c #561515",
"#c c #585b57",
"#d c #595c57",
"aC c #5c5e5b",
"aX c #5d5f5b",
"#L c #5f0c0c",
"#2 c #636462",
".u c #656764",
"ah c #666965",
"#W c #6a0d0d",
".o c #6a6c6a",
"#e c #6a6d68",
".p c #6b6c6a",
".q c #6c6e6c",
"#X c #710b0b",
".n c #717370",
"#H c #720f0f",
"aw c #727471",
"#b c #727570",
"#t c #730606",
".t c #767875",
"#i c #767975",
"#Z c #770606",
"#r c #7a0707",
".s c #7a7c79",
"#J c #7d0909",
"#Y c #7f0303",
"#s c #810505",
"#u c #820202",
"#V c #860101",
"#q c #881211",
"bu c #898b88",
"bm c #898c88",
".H c #898c89",
".x c #8c8e8b",
"aP c #8c8f8a",
"ak c #8e918d",
".R c #959794",
"bc c #989b97",
".I c #999b98",
"#K c #9a0000",
".y c #9a9d9a",
"aE c #9a9e98",
"#P c #9b9f9a",
"#U c #9f0000",
"bq c #a1a5a0",
".8 c #a2a5a0",
"#l c #a2a6a1",
".9 c #a3a6a2",
"be c #a4a6a3",
"#. c #a4a7a2",
"#f c #a4a8a2",
"#g c #a5a8a4",
"## c #a5a9a3",
"#a c #a5aaa3",
"#T c #a70000",
".3 c #a7a9a6",
".2 c #a8aca6",
"bf c #aaaca8",
"bA c #b1b3b0",
"#8 c #b4aeab",
"#9 c #b5b0ac",
"aJ c #babdb9",
"aR c #bbbeba",
"#y c #bcbfbc",
"#S c #bda3a0",
"bv c #bdbfbc",
"#3 c #bec0bd",
".r c #bfc1be",
"bo c #c0c2be",
"bp c #c0c3be",
"az c #c1c3c0",
"bn c #c1c4c0",
"ar c #c3c5c2",
"#D c #c4a4a1",
"#x c #c5c9c4",
"#F c #c60101",
".m c #c6c8c5",
"#O c #c7c9c6",
"#n c #c8adaa",
"#7 c #c8c8c6",
"#h c #c8c9c7",
"bb c #c8cac7",
".4 c #caccc9",
"ba c #cacec8",
"aD c #cbcdca",
".i c #cccccb",
".e c #cccccc",
".l c #cccdcb",
"#m c #cccecb",
"aG c #ccd0ca",
"#6 c #cdcecc",
"#C c #cdcfcc",
"aW c #cdd0cb",
"#R c #cdd1cb",
"#o c #cf2625",
"#p c #d12726",
"#E c #d80000",
"Qt.#.a.a.a.a.a.a.a.a.a.a.a.a.a.a.a.a.a.a.a.a.a.a.a.a.a.a.a.b.c.d",
".#.e.e.e.e.e.e.e.e.e.e.e.e.e.e.e.e.e.e.e.e.e.e.e.e.e.e.e.e.e.f.g",
".h.e.e.e.e.e.e.e.e.e.e.i.i.i.i.i.i.i.i.i.i.i.i.i.i.i.i.e.e.e.j.k",
".a.e.e.e.e.i.i.i.i.i.i.i.i.i.i.i.i.i.i.i.i.i.i.i.i.i.i.i.e.e.j.k",
".a.e.e.e.i.i.i.i.i.i.l.m.n.o.p.p.p.p.p.p.p.p.p.p.o.q.r.i.i.e.j.k",
".a.e.e.i.i.m.s.t.t.t.t.u.v.w.w.w.w.w.w.w.w.w.w.w.w.v.x.i.i.e.j.k",
".a.e.e.i.i.y.z.A.B.A.A.A.C.D.D.D.D.D.D.D.D.D.D.E.F.G.H.i.i.e.j.k",
".a.e.e.i.i.I.v.C.J.K.L.L.M.M.M.M.M.M.N.M.M.M.M.O.P.Q.R.i.i.e.j.k",
".a.e.e.i.i.I.S.T.U.V.v.W.X.z.P.P.Y.Z.P.0.v.P.W.1.2.3.4.i.i.e.j.k",
".a.e.e.i.i.I.5.T.6.7.8.9#.###a#b#c#d#d#d#e#f#.#g.l.i.i.i.e.e.j.k",
".a.e.i.i#h#i#j.T.V#k#l#m#n#o#p#q#r#s#t#u#v#w#x.i.i.i.i.e.e.e.j.k",
".a.e.i.i#y.7#z.D.L#A#B#C#D#E#F#G#H#I#J#K#L#M#N#O.i.i.e.e.e.e.j.k",
".a.e.e.i#m#P.S.M#M#Q#R.l#S#T#U#V#W#X#Y#Z#0#1.O#2.l.i.e.e.e.e.j.k",
".a.e.i.i#3#4#z.D.L#z#5#6#7#8#9a.a#aaabacadaeafag#C.i.e.e.e.e.j.k",
".a.e.i.i.mahai.T.Vajak#m.i.i#mal#Mamanaoapaeafaq#C.i.e.e.e.e.j.k",
".a.e.i.iarasatau.6avaw#m.i.i#maxayamanaoapaeafaq#C.i.e.e.e.e.j.k",
".a.e.i.iazaA.A.J.FaBaC#6.i.i#max#Mamanaoapaeafaq#C.i.e.e.e.e.j.k",
".a.e.e.iaDaE.v.M#MaFaG.l.i.i#max#MamaHaIanaeafaq#C.i.e.e.e.e.j.k",
".a.e.i.iaJaK#zaLaM.zaN#C.i.i#max#M.UaOaOaOamafaq#C.i.e.e.e.e.j.k",
".a.e.i.i.4aP#j.M#MaQaR.l.i.i#maSaT.F.F.F.F.F#MaU#C.i.e.e.e.e.j.k",
".a.e.e.i.i.I.S.M.VaVaW#m#m#maWaXaY#QaZa0aZ#QaYa1#C.i.e.e.e.e.j.k",
".a.e.e.i.i.I.5.T.J.wa2#Q#Q#Qa3a4a5a6a6#Ba6a6a5a7#C.i.i.i.e.e.j.k",
".a.e.e.i.i.Ia8.Ta9au#M#M#M#M#M#M#M#M#M#M#M#Mb.b#babb.i.i.i.e.j.k",
".a.e.e.i.ibc.v.6bdbd.F.F.D.Uamamamamamamamamau.Ab#b#be.i.i.e.j.k",
".a.e.e.i.ibfbg#j#j#j#j#jaT#1bhbibjbjambhbkbhbl.Taf.Gbm.i.i.e.j.k",
".a.e.e.i.i.ibnbobobobpbq.zaTbraTaTbraTaTbsaTaTaTaTbtbu.i.i.e.j.k",
".a.e.e.e.i.i.i.i.i.i.ibvbwbxbybybybybybybybybybybxbzbA.i.i.e.j.k",
".a.e.e.e.e.e.i.i.i.i.i.i.l.l.l.l.l.l.l.l.l.l.l.l.l.l.i.i.e.e.j.k",
".a.e.e.e.e.e.e.e.e.e.i.i.i.i.i.i.i.i.i.i.i.i.i.i.i.i.i.i.e.e.j.k",
".b.e.e.e.e.e.e.e.e.e.e.e.e.e.e.e.e.e.e.e.e.e.e.e.e.e.e.e.e.ebB.k",
".c.f.j.j.j.j.j.j.j.j.j.j.j.j.j.j.j.j.j.j.j.j.j.j.j.j.j.j.jbBbC.g",
".d.g.k.k.k.k.k.k.k.k.k.k.k.k.k.k.k.k.k.k.k.k.k.k.k.k.k.k.k.k.g.d"};
